<?xml version="1.0" encoding="UTF-8" standalone="no"?>
<svg xmlns="http://www.w3.org/2000/svg" version="1.1" xmlns:xlink="http://www.w3.org/1999/xlink" xmlns:svgjs="http://svgjs.dev/svgjs" width="2000" height="2242" viewBox="0 0 2000 2242"><g transform="matrix(1,0,0,1,-3.115264797507507,0)"><svg viewBox="0 0 321 360" data-background-color="#000000" preserveAspectRatio="xMidYMid meet" height="2242" width="2000" xmlns="http://www.w3.org/2000/svg" xmlns:xlink="http://www.w3.org/1999/xlink"><g id="tight-bounds" transform="matrix(1,0,0,1,0.5,0)"><svg viewBox="0 0 320 360" height="360" width="320"><g><svg></svg></g><g><svg viewBox="0 0 320 360" height="360" width="320"><g><path d="M20.961 227.22l3.726 4.658-1.863-6.056c-0.466-2.795-3.726 0.466-1.863 1.398M25.153 224.425c1.397 2.329 2.795 4.658 2.795 6.987 0 3.261 2.795 4.658 5.123 5.589-3.261-3.726-5.124-13.974-7.918-12.576M204.017 26.929c7.918 0 15.371-0.932 23.756 0.931 20.495 5.124 37.729 15.371 49.374 29.811l32.606 52.169c1.397 13.042 4.192 27.482 3.726 43.319 3.261 0 2.795-4.658 6.521-5.59-3.726 9.316-5.59 20.961-6.521 34.469-2.329-7.453 0-18.632 0.466-24.687-3.261 5.124-5.124 1.397-5.124-0.932 0.466-3.726-1.397-3.261-2.795-4.658-5.124-4.658-8.384-9.782-12.11-17.7 2.329-6.055 2.795-14.905-4.658-19.563-2.329-1.397-5.124-3.726-6.521-7.453-1.863-5.124-5.124-11.179-4.193-19.097 0.466-2.329-6.987 5.124-11.179 1.863-18.166-12.576-36.332-27.016-58.224-39.127-11.645 0-20.029-4.192-24.221-9.316-3.726-4.658-0.932-10.713 4.658-11.179 3.261 0 6.987-0.932 9.782 0.932 0.466-1.863 2.329-4.192 4.657-4.192M157.904 16.215l0.932 0.466c4.658 0.932 6.987 7.453 12.11 5.124 0 3.261 0.466 6.521-0.466 8.85-1.397 3.726-5.59 3.726-8.85 3.726-31.208-1.863-49.374 11.179-68.471 22.358-5.124 3.261-10.713 5.59-14.906 9.782-20.029 18.632-41.921 35.866-47.045 70.335l-4.192 38.195c-0.466 4.192-5.124 8.384-4.192 13.508l3.26 22.824c-3.261-3.261-5.124 0.932-4.192 2.795 0.466 1.397 2.329 6.055 5.124 1.863 3.726 6.987 7.453 20.495 12.576 26.55 15.837 18.632 36.332 35.4 53.101 52.169 4.192-0.932 7.453-0.932 8.384-3.727 1.397 2.795-1.397 5.59-3.726 6.056 7.453 4.658 15.837 8.85 27.016 9.781 14.44 0.932 27.948 3.261 40.524 6.522 6.521-1.863 13.042-2.795 20.029-3.261 2.329 0 3.726-3.726 6.521-4.658l0.466-4.658c2.795 4.192 2.329-1.397 0.466-4.192 3.261 2.795 4.192 5.124 5.589 6.987 0-1.397 3.726-6.521 3.727-0.466l0.931-6.055c1.397-0.932 1.863 5.124 3.261 0.931 1.397-4.192 4.192-0.932 6.987-2.329-0.932 1.863-0.466 5.59 2.794 3.261l3.727-3.261c2.329 5.59 6.055 3.261 7.918 2.329 20.495-13.042 40.99-28.413 60.553-43.784l-0.466 6.055 2.329-7.453c2.329 2.329 4.192 0.466 5.124-0.931 2.795-4.658 6.521-9.316 12.577-13.508-7.453 20.029-16.303 35.866-27.482 48.908l-4.658 5.59c0 3.261-0.932 7.453-4.658 7.918-1.863 0.466-5.59-0.932-8.384 1.863-1.397 1.863 3.261 5.59-0.466 2.795-3.261-2.329-6.521 0-10.248 0.932-2.795 0.932 1.863 3.726 2.795 5.589 0.932 1.863 1.863 3.726 1.398 6.056l-5.124-5.59c-6.055 3.261-9.782 9.316-14.906 13.974-2.329 1.863-1.397 5.124-1.397 7.918-3.261 0-6.987-0.932-8.85 0.932-1.397 1.863-0.932 4.658-0.932 7.453-4.658-0.466-5.124-7.453-9.315-6.056-4.192 0.932-8.85 1.397-12.577 3.727 2.795 5.59-4.658 2.329-3.726 3.26-6.987-4.192-13.042-7.453-20.495-4.658-15.837-5.124-35.4-2.795-49.84-0.931 0-2.329 0.466-4.658-0.466-5.124-0.932 2.329-3.726 1.397-3.26 1.397-8.85-6.055-17.7-9.782-27.016-14.905-8.384 0.932-16.303-3.261-18.632-5.59-6.521-6.055-13.974-2.795-20.029-4.192-13.042-3.261-17.7-16.769-19.098-26.084-0.932-4.658-4.658-6.521-6.055-6.056-6.055-19.563-15.371-37.263-22.824-55.429-1.863-4.658-1.397-9.316-1.397-14.44 2.329 0.932 4.658 0.466 4.192-2.794-2.329-15.371-7.918-27.016-13.974-38.195 3.261-15.837 3.726-34.469 11.179-48.443 6.521-12.576 18.632-19.098 27.016-29.811 2.795-3.726 2.795-8.85 5.59-12.11 9.316-9.316 18.632-19.098 28.879-27.482 4.658-3.726 10.247 0 17.234-1.397 2.329-8.384 11.645-15.837 20.495-13.508 3.726 0.932 11.179-8.85 13.508-9.782 3.726-1.397 1.863 3.726 1.863 6.987 8.85-6.987 20.961-10.713 32.14-14.906" fill="#ff0000" fill-rule="nonzero" stroke="none" stroke-width="1" stroke-linecap="butt" stroke-linejoin="miter" stroke-miterlimit="10" stroke-dasharray="" stroke-dashoffset="0" font-family="none" font-weight="none" font-size="none" text-anchor="none" style="mix-blend-mode: normal" data-fill-palette-color="tertiary"></path></g><g transform="matrix(1,0,0,1,64,123.74459320288362)"><svg viewBox="0 0 192 112.51081359423276" height="112.51081359423276" width="192"><g><svg viewBox="0 0 192 112.51081359423276" height="112.51081359423276" width="192"><g><svg viewBox="0 0 192 112.51081359423276" height="112.51081359423276" width="192"><g><svg viewBox="0 0 192 112.51081359423276" height="112.51081359423276" width="192"><g id="textblocktransform"><svg viewBox="0 0 192 112.51081359423276" height="112.51081359423276" width="192" id="textblock"><g><svg viewBox="0 0 192 112.51081359423276" height="112.51081359423276" width="192"><g transform="matrix(1,0,0,1,0,0)"><svg width="192" viewBox="2.25 -25.1 48.55 28.450000000000003" height="112.51081359423276" data-palette-color="#00d7ff"><path d="M2.7 3.35L2.7 3.35Q2.25 3.35 2.25 2.9L2.25 2.9Q2.25 2.25 2.88 0.8 3.5-0.65 4.38-2.35 5.25-4.05 6.08-5.48 6.9-6.9 7.3-7.55L7.3-7.55Q7-8.4 7-9.3L7-9.3Q7-10.6 7.73-11.08 8.45-11.55 9.65-11.45L9.65-11.45Q10.6-12.95 11.58-14.43 12.55-15.9 13.6-17.35L13.6-17.35Q14.05-18 14.55-18.73 15.05-19.45 15.6-20L15.6-20Q15.7-20.1 16-20.1L16-20.1Q16.25-20.1 16.95-19.95 17.65-19.8 17.65-19.45L17.65-19.45Q17.65-19.4 17.45-19.3L17.45-19.3Q16.95-18.7 16.45-18.07 15.95-17.45 15.45-16.8L15.45-16.8Q14.15-15.15 12.9-13.43 11.65-11.7 10.45-9.95L10.45-9.95Q11.7-10.1 13.65-10.7 15.6-11.3 17.78-12.25 19.95-13.2 21.9-14.4 23.85-15.6 25.08-17 26.3-18.4 26.3-19.9L26.3-19.9Q26.3-21.25 25.25-21.88 24.2-22.5 22.83-22.7 21.45-22.9 20.5-22.9L20.5-22.9Q17.3-22.9 13.78-22 10.25-21.1 7.15-20.2L7.15-20.2Q6.8-20.05 6.35-20.05L6.35-20.05Q5.8-20.05 5.48-20.43 5.15-20.8 5.15-21.35L5.15-21.35Q5.15-22.6 6.25-23.05L6.25-23.05Q6.55-23.2 6.95-23.3 7.35-23.4 7.7-23.45L7.7-23.45Q10.65-24.05 13.7-24.58 16.75-25.1 19.8-25.1L19.8-25.1Q21.15-25.1 22.65-24.88 24.15-24.65 25.43-24.05 26.7-23.45 27.53-22.38 28.35-21.3 28.35-19.6L28.35-19.6Q28.35-17.9 27.15-16.4 25.95-14.9 24.15-13.73 22.35-12.55 20.45-11.75 18.55-10.95 17.15-10.55L17.15-10.55Q15.45-10.1 13.78-9.68 12.1-9.25 10.4-8.9L10.4-8.9Q10.75-7.6 11.55-6.45 12.35-5.3 13.3-4.4L13.3-4.4Q15.15-2.7 17.68-1.35 20.2 0 22.65 0.55L22.65 0.55Q23.2 0.65 23.68 0.7 24.15 0.75 24.65 0.85L24.65 0.85Q24.95 0.85 24.95 1.15L24.95 1.15Q24.95 1.4 24.63 1.48 24.3 1.55 24.05 1.55L24.05 1.55Q22.2 1.55 19.85 0.98 17.5 0.4 15.15-0.63 12.8-1.65 10.9-3.05 9-4.45 7.95-6.1L7.95-6.1Q7.2-4.9 6.28-3.4 5.35-1.9 4.53-0.35 3.7 1.2 3.25 2.5L3.25 2.5Q3.2 2.7 3.1 3.03 3 3.35 2.7 3.35ZM29.2 0.55L29.2 0.55Q29.05 0.55 29.02 0.33 29 0.1 29 0.05L29 0.05Q29-0.85 29.7-2.6 30.4-4.35 31.57-6.58 32.75-8.8 34.12-11.18 35.5-13.55 36.87-15.78 38.25-18 39.37-19.73 40.5-21.45 41.1-22.3L41.1-22.3Q39.75-22.25 37.67-22.13 35.6-22 33.4-21.68 31.2-21.35 29.37-20.7 27.55-20.05 26.6-18.95L26.6-18.95Q26.4-18.75 26.22-18.45 26.05-18.15 26.05-17.8L26.05-17.8Q26.05-17.15 26.52-16.88 27-16.6 27-16.35L27-16.35Q27-16.3 26.87-16.28 26.75-16.25 26.7-16.25L26.7-16.25Q25.7-16.25 24.85-17.05 24-17.85 24-18.85L24-18.85Q24-19.1 24.07-19.35 24.15-19.6 24.2-19.85L24.2-19.85Q24.85-21.45 26.6-22.4 28.35-23.35 30.57-23.83 32.8-24.3 34.97-24.45 37.15-24.6 38.65-24.6L38.65-24.6Q39.7-24.6 40.75-24.55 41.8-24.5 42.8-24.4L42.8-24.4Q43.3-24.9 44.15-24.9L44.15-24.9Q44.35-24.9 44.55-24.83 44.75-24.75 44.75-24.5L44.75-24.5Q44.75-24.4 44.65-24.2L44.65-24.2Q45.15-24.15 46.15-23.95 47.15-23.75 48.22-23.4 49.3-23.05 50.05-22.53 50.8-22 50.8-21.3L50.8-21.3Q50.8-21.15 50.72-20.85 50.65-20.55 50.4-20.55L50.4-20.55Q50.35-20.55 50.32-20.63 50.3-20.7 50.25-20.75L50.25-20.75Q50.05-21 49.62-21.18 49.2-21.35 48.85-21.45L48.85-21.45Q47.55-21.85 46.12-22.05 44.7-22.25 43.3-22.3L43.3-22.3Q40.25-18.25 37.4-14.05 34.55-9.85 32.2-5.4L32.2-5.4Q31.55-4.1 30.92-2.73 30.3-1.35 29.65 0L29.65 0Q29.6 0.1 29.47 0.33 29.35 0.55 29.2 0.55Z" opacity="1" transform="matrix(1,0,0,1,0,0)" fill="#00d7ff" class="wordmark-text-0" data-fill-palette-color="primary" id="text-0"></path></svg></g></svg></g></svg></g></svg></g><g></g></svg></g></svg></g></svg></g></svg></g><defs></defs></svg><rect width="320" height="360" fill="none" stroke="none" visibility="hidden"></rect></g></svg></g></svg>